<mxfile host="app.diagrams.net" modified="2020-09-28T23:22:00.979Z" agent="5.0 (Windows NT 10.0; Win64; x64) AppleWebKit/537.36 (KHTML, like Gecko) Chrome/85.0.4183.121 Safari/537.36" etag="tuMKvWSjVYsWiN4uXxbM" version="13.7.6" type="github">
  <diagram id="C5RBs43oDa-KdzZeNtuy" name="Page-1">
    <mxGraphModel dx="2037" dy="433" grid="1" gridSize="10" guides="1" tooltips="1" connect="1" arrows="1" fold="1" page="1" pageScale="1" pageWidth="1169" pageHeight="1654" math="0" shadow="0">
      <root>
        <mxCell id="WIyWlLk6GJQsqaUBKTNV-0" />
        <mxCell id="WIyWlLk6GJQsqaUBKTNV-1" parent="WIyWlLk6GJQsqaUBKTNV-0" />
        <mxCell id="uC80JRO-3bg-iqSg6Jkm-11" style="edgeStyle=orthogonalEdgeStyle;rounded=0;orthogonalLoop=1;jettySize=auto;html=1;entryX=0.5;entryY=0;entryDx=0;entryDy=0;" parent="WIyWlLk6GJQsqaUBKTNV-1" source="uC80JRO-3bg-iqSg6Jkm-12" target="uC80JRO-3bg-iqSg6Jkm-14" edge="1">
          <mxGeometry relative="1" as="geometry" />
        </mxCell>
        <mxCell id="uC80JRO-3bg-iqSg6Jkm-12" value="START" style="ellipse;whiteSpace=wrap;html=1;" parent="WIyWlLk6GJQsqaUBKTNV-1" vertex="1">
          <mxGeometry x="-683.5" y="10" width="120" height="80" as="geometry" />
        </mxCell>
        <mxCell id="uC80JRO-3bg-iqSg6Jkm-13" style="edgeStyle=orthogonalEdgeStyle;rounded=0;orthogonalLoop=1;jettySize=auto;html=1;entryX=0.5;entryY=0;entryDx=0;entryDy=0;" parent="WIyWlLk6GJQsqaUBKTNV-1" source="uC80JRO-3bg-iqSg6Jkm-14" target="uC80JRO-3bg-iqSg6Jkm-20" edge="1">
          <mxGeometry relative="1" as="geometry" />
        </mxCell>
        <mxCell id="uC80JRO-3bg-iqSg6Jkm-14" value="e_nro_1,&amp;nbsp;e_nro_2,&amp;nbsp;e_nro_3" style="shape=internalStorage;whiteSpace=wrap;html=1;backgroundOutline=1;" parent="WIyWlLk6GJQsqaUBKTNV-1" vertex="1">
          <mxGeometry x="-720" y="160" width="193" height="90" as="geometry" />
        </mxCell>
        <mxCell id="uC80JRO-3bg-iqSg6Jkm-15" style="edgeStyle=orthogonalEdgeStyle;rounded=0;orthogonalLoop=1;jettySize=auto;html=1;entryX=0.5;entryY=0;entryDx=0;entryDy=0;" parent="WIyWlLk6GJQsqaUBKTNV-1" source="uC80JRO-3bg-iqSg6Jkm-16" target="uC80JRO-3bg-iqSg6Jkm-18" edge="1">
          <mxGeometry relative="1" as="geometry" />
        </mxCell>
        <mxCell id="uC80JRO-3bg-iqSg6Jkm-16" value="&lt;span&gt;e_nro_2&lt;/span&gt;" style="shape=manualInput;whiteSpace=wrap;html=1;" parent="WIyWlLk6GJQsqaUBKTNV-1" vertex="1">
          <mxGeometry x="-690" y="420" width="133" height="80" as="geometry" />
        </mxCell>
        <mxCell id="uC80JRO-3bg-iqSg6Jkm-17" style="edgeStyle=orthogonalEdgeStyle;rounded=0;orthogonalLoop=1;jettySize=auto;html=1;" parent="WIyWlLk6GJQsqaUBKTNV-1" source="uC80JRO-3bg-iqSg6Jkm-18" target="uC80JRO-3bg-iqSg6Jkm-21" edge="1">
          <mxGeometry relative="1" as="geometry" />
        </mxCell>
        <mxCell id="uC80JRO-3bg-iqSg6Jkm-18" value="&lt;span&gt;e_nro_3&lt;/span&gt;" style="shape=manualInput;whiteSpace=wrap;html=1;" parent="WIyWlLk6GJQsqaUBKTNV-1" vertex="1">
          <mxGeometry x="-690" y="540" width="133" height="80" as="geometry" />
        </mxCell>
        <mxCell id="uC80JRO-3bg-iqSg6Jkm-19" style="edgeStyle=orthogonalEdgeStyle;rounded=0;orthogonalLoop=1;jettySize=auto;html=1;" parent="WIyWlLk6GJQsqaUBKTNV-1" source="uC80JRO-3bg-iqSg6Jkm-20" target="uC80JRO-3bg-iqSg6Jkm-16" edge="1">
          <mxGeometry relative="1" as="geometry" />
        </mxCell>
        <mxCell id="uC80JRO-3bg-iqSg6Jkm-20" value="e_nro_1" style="shape=manualInput;whiteSpace=wrap;html=1;" parent="WIyWlLk6GJQsqaUBKTNV-1" vertex="1">
          <mxGeometry x="-690" y="290" width="133" height="80" as="geometry" />
        </mxCell>
        <mxCell id="uC80JRO-3bg-iqSg6Jkm-24" style="edgeStyle=orthogonalEdgeStyle;rounded=0;orthogonalLoop=1;jettySize=auto;html=1;entryX=0.5;entryY=0;entryDx=0;entryDy=0;" parent="WIyWlLk6GJQsqaUBKTNV-1" source="uC80JRO-3bg-iqSg6Jkm-21" target="uC80JRO-3bg-iqSg6Jkm-23" edge="1">
          <mxGeometry relative="1" as="geometry" />
        </mxCell>
        <mxCell id="uC80JRO-3bg-iqSg6Jkm-21" value="e_nro_1&amp;gt;e_nro_2" style="rhombus;whiteSpace=wrap;html=1;" parent="WIyWlLk6GJQsqaUBKTNV-1" vertex="1">
          <mxGeometry x="-698.5" y="670" width="150" height="90" as="geometry" />
        </mxCell>
        <mxCell id="uC80JRO-3bg-iqSg6Jkm-27" style="edgeStyle=orthogonalEdgeStyle;rounded=0;orthogonalLoop=1;jettySize=auto;html=1;entryX=0.5;entryY=0;entryDx=0;entryDy=0;" parent="WIyWlLk6GJQsqaUBKTNV-1" source="uC80JRO-3bg-iqSg6Jkm-23" target="uC80JRO-3bg-iqSg6Jkm-26" edge="1">
          <mxGeometry relative="1" as="geometry" />
        </mxCell>
        <mxCell id="uC80JRO-3bg-iqSg6Jkm-23" value="e_nro_2&amp;gt;e_nro_3" style="rhombus;whiteSpace=wrap;html=1;" parent="WIyWlLk6GJQsqaUBKTNV-1" vertex="1">
          <mxGeometry x="-400" y="782" width="150" height="90" as="geometry" />
        </mxCell>
        <mxCell id="uC80JRO-3bg-iqSg6Jkm-30" style="edgeStyle=orthogonalEdgeStyle;rounded=0;orthogonalLoop=1;jettySize=auto;html=1;entryX=0.5;entryY=0;entryDx=0;entryDy=0;" parent="WIyWlLk6GJQsqaUBKTNV-1" source="uC80JRO-3bg-iqSg6Jkm-26" target="uC80JRO-3bg-iqSg6Jkm-29" edge="1">
          <mxGeometry relative="1" as="geometry" />
        </mxCell>
        <mxCell id="uC80JRO-3bg-iqSg6Jkm-26" value="e_nro_1&amp;gt;e_nro_3" style="rhombus;whiteSpace=wrap;html=1;" parent="WIyWlLk6GJQsqaUBKTNV-1" vertex="1">
          <mxGeometry x="-630" y="860" width="150" height="90" as="geometry" />
        </mxCell>
        <mxCell id="uC80JRO-3bg-iqSg6Jkm-35" style="edgeStyle=orthogonalEdgeStyle;rounded=0;orthogonalLoop=1;jettySize=auto;html=1;entryX=0.5;entryY=0;entryDx=0;entryDy=0;" parent="WIyWlLk6GJQsqaUBKTNV-1" source="uC80JRO-3bg-iqSg6Jkm-29" target="uC80JRO-3bg-iqSg6Jkm-31" edge="1">
          <mxGeometry relative="1" as="geometry" />
        </mxCell>
        <mxCell id="uC80JRO-3bg-iqSg6Jkm-29" value="e_nro_1&amp;gt;e_nro_3" style="rhombus;whiteSpace=wrap;html=1;" parent="WIyWlLk6GJQsqaUBKTNV-1" vertex="1">
          <mxGeometry x="-833.5" y="950" width="150" height="90" as="geometry" />
        </mxCell>
        <mxCell id="uC80JRO-3bg-iqSg6Jkm-36" style="edgeStyle=orthogonalEdgeStyle;rounded=0;orthogonalLoop=1;jettySize=auto;html=1;" parent="WIyWlLk6GJQsqaUBKTNV-1" source="uC80JRO-3bg-iqSg6Jkm-31" target="uC80JRO-3bg-iqSg6Jkm-32" edge="1">
          <mxGeometry relative="1" as="geometry" />
        </mxCell>
        <mxCell id="uC80JRO-3bg-iqSg6Jkm-31" value="e_nro_2" style="shape=document;whiteSpace=wrap;html=1;boundedLbl=1;" parent="WIyWlLk6GJQsqaUBKTNV-1" vertex="1">
          <mxGeometry x="-1050" y="1110" width="120" height="80" as="geometry" />
        </mxCell>
        <mxCell id="uC80JRO-3bg-iqSg6Jkm-37" style="edgeStyle=orthogonalEdgeStyle;rounded=0;orthogonalLoop=1;jettySize=auto;html=1;" parent="WIyWlLk6GJQsqaUBKTNV-1" source="uC80JRO-3bg-iqSg6Jkm-32" target="uC80JRO-3bg-iqSg6Jkm-33" edge="1">
          <mxGeometry relative="1" as="geometry" />
        </mxCell>
        <mxCell id="uC80JRO-3bg-iqSg6Jkm-32" value="e_nro_1" style="shape=document;whiteSpace=wrap;html=1;boundedLbl=1;" parent="WIyWlLk6GJQsqaUBKTNV-1" vertex="1">
          <mxGeometry x="-1050" y="1270" width="120" height="80" as="geometry" />
        </mxCell>
        <mxCell id="uC80JRO-3bg-iqSg6Jkm-38" style="edgeStyle=orthogonalEdgeStyle;rounded=0;orthogonalLoop=1;jettySize=auto;html=1;entryX=0;entryY=0.5;entryDx=0;entryDy=0;" parent="WIyWlLk6GJQsqaUBKTNV-1" source="uC80JRO-3bg-iqSg6Jkm-33" target="uC80JRO-3bg-iqSg6Jkm-34" edge="1">
          <mxGeometry relative="1" as="geometry" />
        </mxCell>
        <mxCell id="uC80JRO-3bg-iqSg6Jkm-33" value="e_nro_3" style="shape=document;whiteSpace=wrap;html=1;boundedLbl=1;" parent="WIyWlLk6GJQsqaUBKTNV-1" vertex="1">
          <mxGeometry x="-1050" y="1480" width="120" height="80" as="geometry" />
        </mxCell>
        <mxCell id="uC80JRO-3bg-iqSg6Jkm-34" value="FIM" style="ellipse;whiteSpace=wrap;html=1;" parent="WIyWlLk6GJQsqaUBKTNV-1" vertex="1">
          <mxGeometry x="-800" y="1480" width="120" height="80" as="geometry" />
        </mxCell>
      </root>
    </mxGraphModel>
  </diagram>
</mxfile>
